<svg xmlns="http://www.w3.org/2000/svg" width="600" height="600" fill="none"><path fill="#283E68" fill-opacity=".7" d="M198 527h202v18H198z"/><path fill="#402B1A" d="M282 123h17v17h-17z"/><path fill="#513225" d="M284.5 128.5h1v1h-1v-1ZM288.5 128.5h1v1h-1v-1ZM286.5 126.5h1v1h-1v-1ZM286.5 130.5h1v1h-1v-1ZM290.5 126.5h1v1h-1v-1ZM289.5 131.5h1v1h-1v-1ZM284.5 133.5h1v1h-1v-1ZM287.5 133.5h1v1h-1v-1ZM290.5 134.5h1v1h-1v-1ZM294.5 126.5h1v1h-1v-1ZM298 126.5h1v1h-1v-1ZM292.5 128.5h1v1h-1v-1ZM296 128.5h1v1h-1v-1ZM294 130.5h1v1h-1v-1ZM292.5 132.5h1v1h-1v-1ZM297 131.5h1v1h-1v-1ZM295 133.5h1v1h-1v-1ZM293.5 135.5h1v1h-1v-1ZM295 137h1v1h-1v-1ZM297.5 136h1v1h-1v-1ZM290.5 137h1v1h-1v-1ZM287.5 136h1v1h-1v-1ZM285.5 137h1v1h-1v-1ZM283 139h16v1h-16z"/><path fill="#2F272B" d="M285 139h1v1h-1v-1ZM286.5 139h1v1h-1v-1ZM289.5 139h1v1h-1v-1ZM291.5 139h1v1h-1v-1ZM294.5 139h1v1h-1v-1ZM297 139h1v1h-1v-1Z"/><path fill="#E5C6A2" d="M282 106h17v17h-17z"/><path fill="#D66921" d="M232 56h17v17h-17z"/><path fill="#E27C19" d="M249 73h17v33.5h-17V73Z"/><path fill="#FB9632" d="M266 73h17v17h-17z"/><path fill="#D0A370" d="M249 123h17v17h-17z"/><path fill="#D66921" d="M249 140h17v17h-17z"/><path fill="#E5C6A2" d="M266 140h16.5v17H266v-17Z"/><path fill="#D66921" d="M266 89.5h33V106h-17v34h-16V89.5Z"/><path fill="#B14D0B" d="M249 106h17v17h-17z"/><path fill="#9B5F27" d="M232 157h18v17h-18z"/><path fill="#9B5F27" d="M215 173h18v35h-18z"/><path fill="#9B5F27" d="M232 189h18v85h-18v-85Z"/><path fill="#9B5F27" d="M249 206.202h17V274h-16l-1-67.798Z"/><path fill="#B2743B" d="M250 157h16v17h17v-17h16.5v17H316v100.5h-50V208h-16v-18.5h-17.5V174H250v-17Z"/><path fill="#D0A370" d="M266 157h17v17h-17zM215 208h17v16h-17z"/><path fill="#3A2212" d="M232 274h84v18h-84z"/><path fill="#A7A6A6" d="M282 274h17v17h-17z"/><path fill="#5B1D00" d="M232 291h84v168h-17v-50h-16.5V307.5h-17V409H249v50h-17V291Z"/><path fill="#722400" d="M249 307h67v118h-17l1.5-99.5H266v84h-17V307Z"/><path fill="#5B1D00" d="M249 375h17v17h-17z"/><path fill="#3A2212" d="M249 358h17v17h-17zM232 342h17v16h-17z"/><path fill="#3A2212" d="M215 291h18v84h-18z"/><path fill="#1B0F07" d="M232 458h17v51h-17zM299 459h17v50h-17z"/><path fill="#3A2212" d="M232 509h17v36h-17zM299 509h17v36h-17z"/><path fill="#E5C6A2" d="M198 224h17v151h-17z"/><path fill="#3A2212" d="M198 324h17v34h-17z"/><path fill="#D0A370" d="M316 224h17v151h-17z"/><path fill="#3A2212" d="M316 324h17v34h-17z"/><path fill="#E1E1E1" d="M386 429h18v18h-18v-18ZM368 411h18v18h-18v-18ZM350 393h18v18h-18v-18Z"/><path fill="#3A2212" d="M333 375h17v18h-17z"/></svg>