<svg xmlns="http://www.w3.org/2000/svg" width="600" height="600" fill="none"><path fill="#283E68" fill-opacity=".7" d="M402 527H200v18h202z"/><path fill="#402B1A" d="M318 123h-17v17h17z"/><path fill="#513225" d="M315.5 128.5h-1v1h1v-1ZM311.5 128.5h-1v1h1v-1ZM313.5 126.5h-1v1h1v-1ZM313.5 130.5h-1v1h1v-1ZM309.5 126.5h-1v1h1v-1ZM310.5 131.5h-1v1h1v-1ZM315.5 133.5h-1v1h1v-1ZM312.5 133.5h-1v1h1v-1ZM309.5 134.5h-1v1h1v-1ZM305.5 126.5h-1v1h1v-1ZM302 126.5h-1v1h1v-1ZM307.5 128.5h-1v1h1v-1ZM304 128.5h-1v1h1v-1ZM306 130.5h-1v1h1v-1ZM307.5 132.5h-1v1h1v-1ZM303 131.5h-1v1h1v-1ZM305 133.5h-1v1h1v-1ZM306.5 135.5h-1v1h1v-1ZM305 137h-1v1h1v-1ZM302.5 136h-1v1h1v-1ZM309.5 137h-1v1h1v-1ZM312.5 136h-1v1h1v-1ZM314.5 137h-1v1h1v-1ZM317 139h-16v1h16z"/><path fill="#2F272B" d="M315 139h-1v1h1v-1ZM313.5 139h-1v1h1v-1ZM310.5 139h-1v1h1v-1ZM308.5 139h-1v1h1v-1ZM305.5 139h-1v1h1v-1ZM303 139h-1v1h1v-1Z"/><path fill="#E5C6A2" d="M318 106h-17v17h17z"/><path fill="#D66921" d="M368 56h-17v17h17z"/><path fill="#E27C19" d="M351 73h-17v33.5h17V73Z"/><path fill="#FB9632" d="M334 73h-17v17h17z"/><path fill="#D0A370" d="M351 123h-17v17h17z"/><path fill="#D66921" d="M351 140h-17v17h17z"/><path fill="#E5C6A2" d="M334 140h-16.5v17H334v-17Z"/><path fill="#D66921" d="M334 89.5h-33V106h17v34h16V89.5Z"/><path fill="#B14D0B" d="M351 106h-17v17h17z"/><path fill="#9B5F27" d="M368 157h-18v17h18z"/><path fill="#9B5F27" d="M385 173h-18v35h18z"/><path fill="#9B5F27" d="M368 189h-18v85h18v-85Z"/><path fill="#9B5F27" d="M351 206.202h-17V274h16l1-67.798Z"/><path fill="#B2743B" d="M350 157h-16v17h-17v-17h-16.5v17H284v100.5h50V208h16v-18.5h17.5V174H350v-17Z"/><path fill="#D0A370" d="M334 157h-17v17h17zM385 208h-17v16h17z"/><path fill="#3A2212" d="M368 274h-84v18h84z"/><path fill="#A7A6A6" d="M318 274h-17v17h17z"/><path fill="#5B1D00" d="M368 291h-84v168h17v-50h16.5V307.5h17V409H351v50h17V291Z"/><path fill="#722400" d="M351 307h-67v118h17l-1.5-99.5H334v84h17V307Z"/><path fill="#5B1D00" d="M351 375h-17v17h17z"/><path fill="#3A2212" d="M351 358h-17v17h17zM368 342h-17v16h17z"/><path fill="#3A2212" d="M385 291h-18v84h18z"/><path fill="#1B0F07" d="M368 458h-17v51h17zM301 459h-17v50h17z"/><path fill="#3A2212" d="M368 509h-17v36h17zM301 509h-17v36h17z"/><path fill="#E5C6A2" d="M402 224h-17v151h17z"/><path fill="#3A2212" d="M402 324h-17v34h17z"/><path fill="#D0A370" d="M284 224h-17v151h17z"/><path fill="#3A2212" d="M284 324h-17v34h17z"/><path fill="#E1E1E1" d="M214 429h-18v18h18v-18ZM232 411h-18v18h18v-18ZM250 393h-18v18h18v-18Z"/><path fill="#3A2212" d="M267 375h-17v18h17z"/></svg>