<svg xmlns="http://www.w3.org/2000/svg" width="600" height="600" fill="none"><path fill="#686762" fill-opacity=".8" d="M374.162 511.782H226v16.462h148.162v-16.462Z"/><path fill="#432614" d="M341.237 317.76h-34.101v81.136h34.101z"/><path fill="#A29081" d="M325.162 267h-82v51h82zM259.162 318h-16v81h16zM324.775 349.509h-17.638v16.462h17.638z"/><path fill="#7F7164" d="M324.775 382.434h-17.638v16.463h17.638v-16.463ZM324.775 333.047h-17.638v16.462h17.638v-16.462ZM341.162 399l-16.387-.103v14.698h16.387V399ZM307.137 317.76h-31.161v-17.638h-32.314v17.638h15.263v95.835h17.051v-80.548h31.161V317.76ZM341.162 267h-16v51h16z"/><path fill="#432614" d="M307.136 300.122h-15.287v17.638h15.287zM275.162 284h-32v16h32z"/><path fill="#F0A748" d="M291.85 300.122h-16.462v17.638h16.462z"/><path fill="#35200F" d="M341.162 413h-16v99h16z"/><path fill="#14181B" d="M341.237 511.782h-17.638v16.462h17.638v-16.462ZM276.563 511.782h-17.638v16.462h17.638v-16.462Z"/><path fill="#35200F" d="M276.162 413h-17v99h17z"/><path fill="#0D1D12" d="M357.7 333.047h-16.463v16.462H357.7v-16.462Z"/><path fill="#A04B2C" d="M309.488 137.85H291.85v16.462h17.638V137.85ZM309.488 168.423H291.85v98.774h17.638v-98.774ZM276.162 168h-17v99h17v-99ZM275.387 137.85h-16.462v16.462h16.462V137.85ZM357.7 184.885h-16.463v16.463H357.7v-16.463ZM341.237 154.312h-16.462v16.462h16.462v-16.462Z"/><path fill="#823217" d="M357.7 201.348h-16.463v32.924H357.7v-32.924ZM309.488 154.312H291.85v14.111h17.638v-14.111ZM275.387 154.312h-16.462v14.111h16.462v-14.111ZM292.162 185h-17v82h17v-82Z"/><path fill="#823217" d="M341.237 170.775h-16.462v96.422h16.462v-96.422Z"/><path fill="#0D1D12" d="M259.162 154h-16v113h16V154ZM324.775 137.85h-15.287v129.347h15.287V137.85Z"/><path fill="#E7CBBD" d="M309.488 72h-51.739v49.975h17.639v32.337h16.462v-16.551h17.638V72Z"/><path fill="#CDA998" d="M291.85 154.312h-16.462v31.749h16.462z"/><path fill="#3C2D0C" d="M309.488 72h-51.739v16.462h17.639v17.051h16.462v17.05h17.638V72Z"/><path fill="#E7CBBD" d="M374.162 398.896h-16.463v15.287h16.463v-15.287Z"/><path fill="#A04B2C" d="M374.162 234.272h-16.463v16.463h16.463v-16.463Z"/><path fill="#823217" d="M374.162 250.735h-16.463v148.162h16.463V250.735Z"/><path fill="#E7CBBD" d="M243.162 400h-16v15h16v-15Z"/><path fill="#823217" d="M243.162 235h-16v165h16V235Z"/></svg>