<svg width="600" height="600" viewBox="0 0 600 600" fill="none" xmlns="http://www.w3.org/2000/svg">
<rect x="198" y="527" width="202" height="18" fill="#283E68" fill-opacity="0.7"/>
<rect x="282" y="123" width="17" height="17" fill="#402B1A"/>
<path d="M284.5 128.5H285.5V129.5H284.5V128.5Z" fill="#513225"/>
<path d="M288.5 128.5H289.5V129.5H288.5V128.5Z" fill="#513225"/>
<path d="M286.5 126.5H287.5V127.5H286.5V126.5Z" fill="#513225"/>
<path d="M286.5 130.5H287.5V131.5H286.5V130.5Z" fill="#513225"/>
<path d="M290.5 126.5H291.5V127.5H290.5V126.5Z" fill="#513225"/>
<path d="M289.5 131.5H290.5V132.5H289.5V131.5Z" fill="#513225"/>
<path d="M284.5 133.5H285.5V134.5H284.5V133.5Z" fill="#513225"/>
<path d="M287.5 133.5H288.5V134.5H287.5V133.5Z" fill="#513225"/>
<path d="M290.5 134.5H291.5V135.5H290.5V134.5Z" fill="#513225"/>
<path d="M294.5 126.5H295.5V127.5H294.5V126.5Z" fill="#513225"/>
<path d="M298 126.5H299V127.5H298V126.5Z" fill="#513225"/>
<path d="M292.5 128.5H293.5V129.5H292.5V128.5Z" fill="#513225"/>
<path d="M296 128.5H297V129.5H296V128.5Z" fill="#513225"/>
<path d="M294 130.5H295V131.5H294V130.5Z" fill="#513225"/>
<path d="M292.5 132.5H293.5V133.5H292.5V132.5Z" fill="#513225"/>
<path d="M297 131.5H298V132.5H297V131.5Z" fill="#513225"/>
<path d="M295 133.5H296V134.5H295V133.5Z" fill="#513225"/>
<path d="M293.5 135.5H294.5V136.5H293.5V135.5Z" fill="#513225"/>
<path d="M295 137H296V138H295V137Z" fill="#513225"/>
<path d="M297.5 136H298.5V137H297.5V136Z" fill="#513225"/>
<path d="M290.5 137H291.5V138H290.5V137Z" fill="#513225"/>
<path d="M287.5 136H288.5V137H287.5V136Z" fill="#513225"/>
<path d="M285.5 137H286.5V138H285.5V137Z" fill="#513225"/>
<rect x="283" y="139" width="16" height="1" fill="#513225"/>
<path d="M285 139H286V140H285V139Z" fill="#2F272B"/>
<path d="M286.5 139H287.5V140H286.5V139Z" fill="#2F272B"/>
<path d="M289.5 139H290.5V140H289.5V139Z" fill="#2F272B"/>
<path d="M291.5 139H292.5V140H291.5V139Z" fill="#2F272B"/>
<path d="M294.5 139H295.5V140H294.5V139Z" fill="#2F272B"/>
<path d="M297 139H298V140H297V139Z" fill="#2F272B"/>
<rect x="282" y="106" width="17" height="17" fill="#E5C6A2"/>
<rect x="232" y="56" width="17" height="17" fill="#D66921"/>
<path d="M249 73H266V106.5H249V73Z" fill="#E27C19"/>
<rect x="266" y="73" width="17" height="17" fill="#FB9632"/>
<rect x="249" y="123" width="17" height="17" fill="#D0A370"/>
<rect x="249" y="140" width="17" height="17" fill="#D66921"/>
<path d="M266 140H282.5V157H266V140Z" fill="#E5C6A2"/>
<path d="M266 89.5H282H299V106H282V140H266V89.5Z" fill="#D66921"/>
<rect x="249" y="106" width="17" height="17" fill="#B14D0B"/>
<rect x="232" y="157" width="18" height="17" fill="#9B5F27"/>
<rect x="215" y="173" width="18" height="35" fill="#9B5F27"/>
<path d="M232 189H250V274H232V189Z" fill="#9B5F27"/>
<path d="M249 206.202H266V274H250L249 206.202Z" fill="#9B5F27"/>
<path d="M250 157H266V174H283V157H299.5V174H316V274.5H266V208H250V189.5H232.5V174H250V157Z" fill="#B2743B"/>
<rect x="266" y="157" width="17" height="17" fill="#D0A370"/>
<rect x="215" y="208" width="17" height="16" fill="#D0A370"/>
<rect x="232" y="274" width="84" height="18" fill="#3A2212"/>
<rect x="282" y="274" width="17" height="17" fill="#A7A6A6"/>
<path d="M232 291H316V459H299V409H282.5V307.5H265.5V409H249V459H232V291Z" fill="#5B1D00"/>
<path d="M249 307H316V425H299L300.5 325.5H266V409.5H249V307Z" fill="#722400"/>
<rect x="249" y="375" width="17" height="17" fill="#5B1D00"/>
<rect x="249" y="358" width="17" height="17" fill="#3A2212"/>
<rect x="232" y="342" width="17" height="16" fill="#3A2212"/>
<rect x="215" y="291" width="18" height="84" fill="#3A2212"/>
<rect x="232" y="458" width="17" height="51" fill="#1B0F07"/>
<rect x="299" y="459" width="17" height="50" fill="#1B0F07"/>
<rect x="232" y="509" width="17" height="36" fill="#3A2212"/>
<rect x="299" y="509" width="17" height="36" fill="#3A2212"/>
<rect x="198" y="224" width="17" height="151" fill="#E5C6A2"/>
<rect x="198" y="324" width="17" height="34" fill="#3A2212"/>
<rect x="316" y="224" width="17" height="151" fill="#D0A370"/>
<rect x="316" y="324" width="17" height="34" fill="#3A2212"/>
<path d="M386 429H404V447H386V429Z" fill="#E1E1E1"/>
<path d="M368 411H386V429H368V411Z" fill="#E1E1E1"/>
<path d="M350 393H368V411H350V393Z" fill="#E1E1E1"/>
<rect x="333" y="375" width="17" height="18" fill="#3A2212"/>
</svg>
