<svg xmlns="http://www.w3.org/2000/svg" width="512" height="512" fill="none"><g clip-path="url(#a)"><path fill="#D9D9D9" d="m422 128 22.5 219.5-94 164.5H148L67 285l40-174L211.314 0H343l79 128Z"/><path fill="#B5ADB6" d="m422 128 22.5 219.5-94 164.5H148L67 285l40-174L211.314 0H343l79 128Z"/><path fill="#554E56" d="m255.854 127.647 91 91.5.351.353-.351.353L277.204 290l61.65 62.147.356.359-.36.351-21 20.5-.354.346-61.996-61.996-60.004 60.004-.353-.361-21-21.5-.347-.356.351-.349 59.643-59.148-70.497-70.497 92.208-92.208.353.355ZM205.293 219.5l50.207 50.207 50.207-50.207-50.207-50.207-50.207 50.207Z"/><g clip-path="url(#b)"><path fill="#D9D9D9" d="m422 128 22.5 219.5-94 164.5H148L67 285l40-174L211.314 0H343l79 128Z"/><path fill="#D7D1D6" d="m422 128 22.5 219.5-94 164.5H148L67 285l40-174L211.314 0H343l79 128Z"/><path fill="#7A6D79" d="m255.854 127.647 91 91.5.351.353-.351.353L277.204 290l61.65 62.147.356.359-.36.351-21 20.5-.354.346-61.996-61.996-60.004 60.004-.353-.361-21-21.5-.347-.356.351-.349 59.643-59.148-70.497-70.497 92.208-92.208.353.355ZM205.293 219.5l50.207 50.207 50.207-50.207-50.207-50.207-50.207 50.207Z"/></g></g><defs><clipPath id="a"><path fill="#fff" d="M67 0h377.5v512H67z"/></clipPath><clipPath id="b"><path fill="#fff" d="M67 0h188v527H67z"/></clipPath></defs></svg>