<svg xmlns="http://www.w3.org/2000/svg" width="378" height="512" fill="none"><g clip-path="url(#a)"><path fill="#D9D9D9" d="m355 128 22.5 219.5-94 164.5H81L0 285l40-174L144.314 0H276l79 128ZM96.293 219.5l70.497 70.497-59.643 59.148-.351.349.347.356 21 21.5.353.361 60.004-60.004 61.996 61.996.354-.346 21-20.5.36-.351-.356-.359L210.204 290l69.65-70.147.351-.353-.351-.353-91-91.5-.353-.355L96.293 219.5Zm142.414 0L188.5 269.707 138.293 219.5l50.207-50.207 50.207 50.207Z"/><path fill="#000" d="m355 128 22.5 219.5-94 164.5H81L0 285l40-174L144.314 0H276l79 128ZM96.293 219.5l70.497 70.497-59.643 59.148-.351.349.347.356 21 21.5.353.361 60.004-60.004 61.996 61.996.354-.346 21-20.5.36-.351-.356-.359L210.204 290l69.65-70.147.351-.353-.351-.353-91-91.5-.353-.355L96.293 219.5Zm142.414 0L188.5 269.707 138.293 219.5l50.207-50.207 50.207 50.207Z"/></g><defs><clipPath id="a"><path fill="#fff" d="M0 0h377.5v512H0z"/></clipPath></defs></svg>