<svg xmlns="http://www.w3.org/2000/svg" width="378" height="512" fill="none"><g clip-path="url(#a)"><path fill="#D9D9D9" d="m355 128 22.5 219.5-94 164.5H81L0 285l40-174L144.314 0H276l79 128ZM158 30l-90 95.5-36 157L103 482h163l80.5-141.5-20.5-202L259 30H158Z"/><path fill="#000" d="m355 128 22.5 219.5-94 164.5H81L0 285l40-174L144.314 0H276l79 128ZM158 30l-90 95.5-36 157L103 482h163l80.5-141.5-20.5-202L259 30H158Z"/><path fill="#000" d="m188.854 127.647 91 91.5.351.353-.351.353L210.204 290l61.65 62.147.356.359-.36.351-21 20.5-.354.346-61.996-61.996-60.004 60.004-.353-.361-21-21.5-.347-.356.351-.349 59.643-59.148L96.293 219.5l92.208-92.208.353.355ZM138.293 219.5l50.207 50.207 50.207-50.207-50.207-50.207-50.207 50.207Z"/></g><defs><clipPath id="a"><path fill="#fff" d="M0 0h377.5v512H0z"/></clipPath></defs></svg>