<svg width="600" height="600" viewBox="0 0 600 600" fill="none" xmlns="http://www.w3.org/2000/svg">
<path d="M360 528.302H508V544.746H360V528.302Z" fill="#686762" fill-opacity="0.8"/>
<rect x="392.889" y="334.492" width="34.0635" height="81.0476" fill="#432614"/>
<rect x="408.946" y="283.787" width="81.9105" height="50.9443" fill="#A29081"/>
<rect x="474.875" y="334.731" width="15.9825" height="80.9116" fill="#A29081"/>
<rect x="409.333" y="366.206" width="17.619" height="16.4444" fill="#A29081"/>
<path d="M409.333 399.095H426.952V415.54H409.333V399.095Z" fill="#7F7164"/>
<path d="M409.333 349.762H426.952V366.206H409.333V349.762Z" fill="#7F7164"/>
<path d="M392.964 415.643L409.333 415.54V430.222H392.964V415.643Z" fill="#7F7164"/>
<path d="M426.952 334.492H458.079V316.873H490.357V334.492H475.11V430.222H458.079V349.762H426.952V334.492Z" fill="#7F7164"/>
<rect x="392.964" y="283.787" width="15.9825" height="50.9443" fill="#7F7164"/>
<rect x="426.952" y="316.873" width="15.2698" height="17.619" fill="#432614"/>
<rect x="458.892" y="300.769" width="31.9651" height="15.9825" fill="#432614"/>
<rect x="442.222" y="316.873" width="16.4444" height="17.619" fill="#F0A748"/>
<rect x="392.964" y="429.628" width="15.9825" height="98.8919" fill="#35200F"/>
<path d="M392.889 528.302H410.508V544.746H392.889V528.302Z" fill="#14181B"/>
<path d="M457.492 528.302H475.111V544.746H457.492V528.302Z" fill="#14181B"/>
<rect x="457.893" y="429.628" width="16.9814" height="98.8919" fill="#35200F"/>
<path d="M376.444 349.762H392.888V366.206H376.444V349.762Z" fill="#0D1D12"/>
<path d="M424.603 154.778H442.222V171.222H424.603V154.778Z" fill="#A04B2C"/>
<path d="M424.603 185.318H442.222V283.984H424.603V185.318Z" fill="#A04B2C"/>
<path d="M457.893 184.895H474.875V283.787H457.893V184.895Z" fill="#A04B2C"/>
<path d="M458.667 154.778H475.111V171.222H458.667V154.778Z" fill="#A04B2C"/>
<path d="M376.444 201.762H392.888V218.206H376.444V201.762Z" fill="#A04B2C"/>
<path d="M392.889 171.222H409.333V187.667H392.889V171.222Z" fill="#A04B2C"/>
<path d="M376.444 218.206H392.888V251.095H376.444V218.206Z" fill="#823217"/>
<path d="M424.603 171.222H442.222V185.317H424.603V171.222Z" fill="#823217"/>
<path d="M458.667 171.222H475.111V185.317H458.667V171.222Z" fill="#823217"/>
<path d="M441.911 201.877H458.892V283.787H441.911V201.877Z" fill="#823217"/>
<path d="M392.889 187.667H409.333V283.984H392.889V187.667Z" fill="#823217"/>
<path d="M474.875 170.91H490.857V283.787H474.875V170.91Z" fill="#0D1D12"/>
<path d="M409.333 154.778H424.603V283.984H409.333V154.778Z" fill="#0D1D12"/>
<path d="M424.603 89H476.285V138.921H466.301H458.666V171.222H442.222V154.689H424.603V89Z" fill="#E7CBBD"/>
<rect x="442.222" y="171.222" width="16.4444" height="31.7143" fill="#CDA998"/>
<path d="M424.603 89H476.285V105.444H458.666V122.476H442.222V139.508H424.603V89Z" fill="#3C2D0C"/>
<path d="M360 415.54H376.444V430.81H360V415.54Z" fill="#E7CBBD"/>
<path d="M360 251.095H376.444V267.54H360V251.095Z" fill="#A04B2C"/>
<path d="M360 267.54H376.444V415.54H360V267.54Z" fill="#823217"/>
<path d="M490.857 416.642H506.839V431.626H490.857V416.642Z" fill="#E7CBBD"/>
<path d="M490.857 251.822H506.839V416.642H490.857V251.822Z" fill="#823217"/>
<rect width="202" height="18" transform="matrix(-1 0 0 1 296 527)" fill="#686762" fill-opacity="0.8"/>
<rect width="17" height="17" transform="matrix(-1 0 0 1 212 123)" fill="#402B1A"/>
<path d="M209.5 128.5H208.5V129.5H209.5V128.5Z" fill="#513225"/>
<path d="M205.5 128.5H204.5V129.5H205.5V128.5Z" fill="#513225"/>
<path d="M207.5 126.5H206.5V127.5H207.5V126.5Z" fill="#513225"/>
<path d="M207.5 130.5H206.5V131.5H207.5V130.5Z" fill="#513225"/>
<path d="M203.5 126.5H202.5V127.5H203.5V126.5Z" fill="#513225"/>
<path d="M204.5 131.5H203.5V132.5H204.5V131.5Z" fill="#513225"/>
<path d="M209.5 133.5H208.5V134.5H209.5V133.5Z" fill="#513225"/>
<path d="M206.5 133.5H205.5V134.5H206.5V133.5Z" fill="#513225"/>
<path d="M203.5 134.5H202.5V135.5H203.5V134.5Z" fill="#513225"/>
<path d="M199.5 126.5H198.5V127.5H199.5V126.5Z" fill="#513225"/>
<path d="M196 126.5H195V127.5H196V126.5Z" fill="#513225"/>
<path d="M201.5 128.5H200.5V129.5H201.5V128.5Z" fill="#513225"/>
<path d="M198 128.5H197V129.5H198V128.5Z" fill="#513225"/>
<path d="M200 130.5H199V131.5H200V130.5Z" fill="#513225"/>
<path d="M201.5 132.5H200.5V133.5H201.5V132.5Z" fill="#513225"/>
<path d="M197 131.5H196V132.5H197V131.5Z" fill="#513225"/>
<path d="M199 133.5H198V134.5H199V133.5Z" fill="#513225"/>
<path d="M200.5 135.5H199.5V136.5H200.5V135.5Z" fill="#513225"/>
<path d="M199 137H198V138H199V137Z" fill="#513225"/>
<path d="M196.5 136H195.5V137H196.5V136Z" fill="#513225"/>
<path d="M203.5 137H202.5V138H203.5V137Z" fill="#513225"/>
<path d="M206.5 136H205.5V137H206.5V136Z" fill="#513225"/>
<path d="M208.5 137H207.5V138H208.5V137Z" fill="#513225"/>
<rect width="16" height="1" transform="matrix(-1 0 0 1 211 139)" fill="#513225"/>
<path d="M209 139H208V140H209V139Z" fill="#2F272B"/>
<path d="M207.5 139H206.5V140H207.5V139Z" fill="#2F272B"/>
<path d="M204.5 139H203.5V140H204.5V139Z" fill="#2F272B"/>
<path d="M202.5 139H201.5V140H202.5V139Z" fill="#2F272B"/>
<path d="M199.5 139H198.5V140H199.5V139Z" fill="#2F272B"/>
<path d="M197 139H196V140H197V139Z" fill="#2F272B"/>
<rect width="17" height="17" transform="matrix(-1 0 0 1 212 106)" fill="#E5C6A2"/>
<rect width="17" height="17" transform="matrix(-1 0 0 1 262 56)" fill="#D66921"/>
<path d="M245 73H228V106.5H245V73Z" fill="#E27C19"/>
<rect width="17" height="17" transform="matrix(-1 0 0 1 228 73)" fill="#FB9632"/>
<rect width="17" height="17" transform="matrix(-1 0 0 1 245 123)" fill="#D0A370"/>
<rect width="17" height="17" transform="matrix(-1 0 0 1 245 140)" fill="#D66921"/>
<path d="M228 140H211.5V157H228V140Z" fill="#E5C6A2"/>
<path d="M228 89.5H212H195V106H212V140H228V89.5Z" fill="#D66921"/>
<rect width="17" height="17" transform="matrix(-1 0 0 1 245 106)" fill="#B14D0B"/>
<rect width="18" height="17" transform="matrix(-1 0 0 1 262 157)" fill="#9B5F27"/>
<rect width="18" height="35" transform="matrix(-1 0 0 1 279 173)" fill="#9B5F27"/>
<path d="M262 189H244V274H262V189Z" fill="#9B5F27"/>
<path d="M245 206.202H228V274H244L245 206.202Z" fill="#9B5F27"/>
<path d="M244 157H228V174H211V157H194.5V174H178V274.5H228V208H244V189.5H261.5V174H244V157Z" fill="#B2743B"/>
<rect width="17" height="17" transform="matrix(-1 0 0 1 228 157)" fill="#D0A370"/>
<rect width="17" height="16" transform="matrix(-1 0 0 1 279 208)" fill="#D0A370"/>
<rect width="84" height="18" transform="matrix(-1 0 0 1 262 274)" fill="#3A2212"/>
<rect width="17" height="17" transform="matrix(-1 0 0 1 212 274)" fill="#A7A6A6"/>
<path d="M262 291H178V459H195V409H211.5V307.5H228.5V409H245V459H262V291Z" fill="#5B1D00"/>
<path d="M245 307H178V425H195L193.5 325.5H228V409.5H245V307Z" fill="#722400"/>
<rect width="17" height="17" transform="matrix(-1 0 0 1 245 375)" fill="#5B1D00"/>
<rect width="17" height="17" transform="matrix(-1 0 0 1 245 358)" fill="#3A2212"/>
<rect width="17" height="16" transform="matrix(-1 0 0 1 262 342)" fill="#3A2212"/>
<rect width="18" height="84" transform="matrix(-1 0 0 1 279 291)" fill="#3A2212"/>
<rect width="17" height="51" transform="matrix(-1 0 0 1 262 458)" fill="#1B0F07"/>
<rect width="17" height="50" transform="matrix(-1 0 0 1 195 459)" fill="#1B0F07"/>
<rect width="17" height="36" transform="matrix(-1 0 0 1 262 509)" fill="#3A2212"/>
<rect width="17" height="36" transform="matrix(-1 0 0 1 195 509)" fill="#3A2212"/>
<rect width="17" height="151" transform="matrix(-1 0 0 1 296 224)" fill="#E5C6A2"/>
<rect width="17" height="34" transform="matrix(-1 0 0 1 296 324)" fill="#3A2212"/>
<rect width="17" height="151" transform="matrix(-1 0 0 1 178 224)" fill="#D0A370"/>
<rect width="17" height="34" transform="matrix(-1 0 0 1 178 324)" fill="#3A2212"/>
<path d="M108 429H90V447H108V429Z" fill="#E1E1E1"/>
<path d="M126 411H108V429H126V411Z" fill="#E1E1E1"/>
<path d="M144 393H126V411H144V393Z" fill="#E1E1E1"/>
<rect width="17" height="18" transform="matrix(-1 0 0 1 161 375)" fill="#3A2212"/>
</svg>
