<svg width="600" height="600" viewBox="0 0 600 600" fill="none" xmlns="http://www.w3.org/2000/svg">
<path d="M226 511.782H374.162V528.244H226V511.782Z" fill="#686762" fill-opacity="0.8"/>
<rect x="258.925" y="317.76" width="34.1007" height="81.1362" fill="#432614"/>
<rect x="275" y="267" width="82" height="51" fill="#A29081"/>
<rect x="341" y="318" width="16" height="81" fill="#A29081"/>
<rect x="275.387" y="349.509" width="17.6383" height="16.4624" fill="#A29081"/>
<path d="M275.387 382.434H293.025V398.897H275.387V382.434Z" fill="#7F7164"/>
<path d="M275.387 333.047H293.025V349.509H275.387V333.047Z" fill="#7F7164"/>
<path d="M259 399L275.387 398.897V413.595H259V399Z" fill="#7F7164"/>
<path d="M293.025 317.76H324.186V300.122H356.5V317.76H341.236V413.595H324.186V333.047H293.025V317.76Z" fill="#7F7164"/>
<rect x="259" y="267" width="16" height="51" fill="#7F7164"/>
<rect x="293.025" y="300.122" width="15.2865" height="17.6383" fill="#432614"/>
<rect x="325" y="284" width="32" height="16" fill="#432614"/>
<rect x="308.312" y="300.122" width="16.4624" height="17.6383" fill="#F0A748"/>
<rect x="259" y="413" width="16" height="99" fill="#35200F"/>
<path d="M258.925 511.782H276.563V528.244H258.925V511.782Z" fill="#14181B"/>
<path d="M323.598 511.782H341.237V528.244H323.598V511.782Z" fill="#14181B"/>
<rect x="324" y="413" width="17" height="99" fill="#35200F"/>
<path d="M242.462 333.047H258.924V349.509H242.462V333.047Z" fill="#0D1D12"/>
<path d="M290.673 137.85H308.312V154.312H290.673V137.85Z" fill="#A04B2C"/>
<path d="M290.673 168.423H308.312V267.197H290.673V168.423Z" fill="#A04B2C"/>
<path d="M324 168H341V267H324V168Z" fill="#A04B2C"/>
<path d="M324.774 137.85H341.237V154.312H324.774V137.85Z" fill="#A04B2C"/>
<path d="M242.462 184.885H258.924V201.348H242.462V184.885Z" fill="#A04B2C"/>
<path d="M258.925 154.312H275.387V170.774H258.925V154.312Z" fill="#A04B2C"/>
<path d="M242.462 201.348H258.924V234.272H242.462V201.348Z" fill="#823217"/>
<path d="M290.673 154.312H308.312V168.423H290.673V154.312Z" fill="#823217"/>
<path d="M324.774 154.312H341.237V168.423H324.774V154.312Z" fill="#823217"/>
<path d="M308 185H325V267H308V185Z" fill="#823217"/>
<path d="M258.925 170.775H275.387V267.197H258.925V170.775Z" fill="#823217"/>
<path d="M341 154H357V267H341V154Z" fill="#0D1D12"/>
<path d="M275.387 137.85H290.673V267.197H275.387V137.85Z" fill="#0D1D12"/>
<path d="M290.673 72H342.412V121.975H332.417H324.774V154.312H308.312V137.761H290.673V72Z" fill="#E7CBBD"/>
<rect x="308.312" y="154.312" width="16.4624" height="31.7489" fill="#CDA998"/>
<path d="M290.673 72H342.412V88.4624H324.774V105.513H308.312V122.563H290.673V72Z" fill="#3C2D0C"/>
<path d="M226 398.896H242.462V414.183H226V398.896Z" fill="#E7CBBD"/>
<path d="M226 234.272H242.462V250.735H226V234.272Z" fill="#A04B2C"/>
<path d="M226 250.735H242.462V398.897H226V250.735Z" fill="#823217"/>
<path d="M357 400H373V415H357V400Z" fill="#E7CBBD"/>
<path d="M357 235H373V400H357V235Z" fill="#823217"/>
</svg>
