<svg width="600" height="600" viewBox="0 0 600 600" fill="none" xmlns="http://www.w3.org/2000/svg">
<path d="M374.162 511.782H226V528.244H374.162V511.782Z" fill="#686762" fill-opacity="0.8"/>
<rect width="34.1007" height="81.1362" transform="matrix(-1 0 0 1 341.237 317.76)" fill="#432614"/>
<rect width="82" height="51" transform="matrix(-1 0 0 1 325.162 267)" fill="#A29081"/>
<rect width="16" height="81" transform="matrix(-1 0 0 1 259.162 318)" fill="#A29081"/>
<rect width="17.6383" height="16.4624" transform="matrix(-1 0 0 1 324.775 349.509)" fill="#A29081"/>
<path d="M324.775 382.434H307.137V398.897H324.775V382.434Z" fill="#7F7164"/>
<path d="M324.775 333.047H307.137V349.509H324.775V333.047Z" fill="#7F7164"/>
<path d="M341.162 399L324.775 398.897V413.595H341.162V399Z" fill="#7F7164"/>
<path d="M307.137 317.76H275.976V300.122H243.662V317.76H258.925V413.595H275.976V333.047H307.137V317.76Z" fill="#7F7164"/>
<rect width="16" height="51" transform="matrix(-1 0 0 1 341.162 267)" fill="#7F7164"/>
<rect width="15.2865" height="17.6383" transform="matrix(-1 0 0 1 307.136 300.122)" fill="#432614"/>
<rect width="32" height="16" transform="matrix(-1 0 0 1 275.162 284)" fill="#432614"/>
<rect width="16.4624" height="17.6383" transform="matrix(-1 0 0 1 291.85 300.122)" fill="#F0A748"/>
<rect width="16" height="99" transform="matrix(-1 0 0 1 341.162 413)" fill="#35200F"/>
<path d="M341.237 511.782H323.599V528.244H341.237V511.782Z" fill="#14181B"/>
<path d="M276.563 511.782H258.925V528.244H276.563V511.782Z" fill="#14181B"/>
<rect width="17" height="99" transform="matrix(-1 0 0 1 276.162 413)" fill="#35200F"/>
<path d="M357.7 333.047H341.237V349.509H357.7V333.047Z" fill="#0D1D12"/>
<path d="M309.488 137.85H291.85V154.312H309.488V137.85Z" fill="#A04B2C"/>
<path d="M309.488 168.423H291.85V267.197H309.488V168.423Z" fill="#A04B2C"/>
<path d="M276.162 168H259.162V267H276.162V168Z" fill="#A04B2C"/>
<path d="M275.387 137.85H258.925V154.312H275.387V137.85Z" fill="#A04B2C"/>
<path d="M357.7 184.885H341.237V201.348H357.7V184.885Z" fill="#A04B2C"/>
<path d="M341.237 154.312H324.775V170.774H341.237V154.312Z" fill="#A04B2C"/>
<path d="M357.7 201.348H341.237V234.272H357.7V201.348Z" fill="#823217"/>
<path d="M309.488 154.312H291.85V168.423H309.488V154.312Z" fill="#823217"/>
<path d="M275.387 154.312H258.925V168.423H275.387V154.312Z" fill="#823217"/>
<path d="M292.162 185H275.162V267H292.162V185Z" fill="#823217"/>
<path d="M341.237 170.775H324.775V267.197H341.237V170.775Z" fill="#823217"/>
<path d="M259.162 154H243.162V267H259.162V154Z" fill="#0D1D12"/>
<path d="M324.775 137.85H309.488V267.197H324.775V137.85Z" fill="#0D1D12"/>
<path d="M309.488 72H257.749V121.975H267.744H275.388V154.312H291.85V137.761H309.488V72Z" fill="#E7CBBD"/>
<rect width="16.4624" height="31.7489" transform="matrix(-1 0 0 1 291.85 154.312)" fill="#CDA998"/>
<path d="M309.488 72H257.749V88.4624H275.388V105.513H291.85V122.563H309.488V72Z" fill="#3C2D0C"/>
<path d="M374.162 398.896H357.699V414.183H374.162V398.896Z" fill="#E7CBBD"/>
<path d="M374.162 234.272H357.699V250.735H374.162V234.272Z" fill="#A04B2C"/>
<path d="M374.162 250.735H357.699V398.897H374.162V250.735Z" fill="#823217"/>
<path d="M243.162 400H227.162V415H243.162V400Z" fill="#E7CBBD"/>
<path d="M243.162 235H227.162V400H243.162V235Z" fill="#823217"/>
</svg>
