<svg xmlns="http://www.w3.org/2000/svg" width="600" height="600" fill="none"><path fill="#686762" fill-opacity=".8" d="M360 528.302h148v16.444H360v-16.444Z"/><path fill="#432614" d="M392.889 334.492h34.063v81.048h-34.063z"/><path fill="#A29081" d="M408.946 283.787h81.91v50.944h-81.91zM474.875 334.731h15.982v80.912h-15.982zM409.333 366.206h17.619v16.444h-17.619z"/><path fill="#7F7164" d="M409.333 399.095h17.619v16.445h-17.619v-16.445ZM409.333 349.762h17.619v16.444h-17.619v-16.444ZM392.964 415.643l16.369-.103v14.682h-16.369v-14.579ZM426.952 334.492h31.127v-17.619h32.278v17.619H475.11v95.73h-17.031v-80.46h-31.127v-15.27ZM392.964 283.787h15.982v50.944h-15.982z"/><path fill="#432614" d="M426.952 316.873h15.27v17.619h-15.27zM458.892 300.769h31.965v15.982h-31.965z"/><path fill="#F0A748" d="M442.222 316.873h16.444v17.619h-16.444z"/><path fill="#35200F" d="M392.964 429.628h15.982v98.892h-15.982z"/><path fill="#14181B" d="M392.889 528.302h17.619v16.444h-17.619v-16.444ZM457.492 528.302h17.619v16.444h-17.619v-16.444Z"/><path fill="#35200F" d="M457.893 429.628h16.981v98.892h-16.981z"/><path fill="#0D1D12" d="M376.444 349.762h16.444v16.444h-16.444v-16.444Z"/><path fill="#A04B2C" d="M424.603 154.778h17.619v16.444h-17.619v-16.444ZM424.603 185.318h17.619v98.666h-17.619v-98.666ZM457.893 184.895h16.982v98.892h-16.982v-98.892ZM458.667 154.778h16.444v16.444h-16.444v-16.444ZM376.444 201.762h16.444v16.444h-16.444v-16.444ZM392.889 171.222h16.444v16.445h-16.444v-16.445Z"/><path fill="#823217" d="M376.444 218.206h16.444v32.889h-16.444v-32.889ZM424.603 171.222h17.619v14.095h-17.619v-14.095ZM458.667 171.222h16.444v14.095h-16.444v-14.095ZM441.911 201.877h16.981v81.91h-16.981v-81.91ZM392.889 187.667h16.444v96.317h-16.444v-96.317Z"/><path fill="#0D1D12" d="M474.875 170.91h15.982v112.877h-15.982V170.91ZM409.333 154.778h15.27v129.206h-15.27V154.778Z"/><path fill="#E7CBBD" d="M424.603 89h51.682v49.921h-17.619v32.301h-16.444v-16.533h-17.619V89Z"/><path fill="#CDA998" d="M442.222 171.222h16.444v31.714h-16.444z"/><path fill="#3C2D0C" d="M424.603 89h51.682v16.444h-17.619v17.032h-16.444v17.032h-17.619V89Z"/><path fill="#E7CBBD" d="M360 415.54h16.444v15.27H360v-15.27Z"/><path fill="#A04B2C" d="M360 251.095h16.444v16.445H360v-16.445Z"/><path fill="#823217" d="M360 267.54h16.444v148H360v-148Z"/><path fill="#E7CBBD" d="M490.857 416.642h15.982v14.984h-15.982v-14.984Z"/><path fill="#823217" d="M490.857 251.822h15.982v164.82h-15.982v-164.82Z"/><path fill="#686762" fill-opacity=".8" d="M296 527H94v18h202z"/><path fill="#402B1A" d="M212 123h-17v17h17z"/><path fill="#513225" d="M209.5 128.5h-1v1h1v-1ZM205.5 128.5h-1v1h1v-1ZM207.5 126.5h-1v1h1v-1ZM207.5 130.5h-1v1h1v-1ZM203.5 126.5h-1v1h1v-1ZM204.5 131.5h-1v1h1v-1ZM209.5 133.5h-1v1h1v-1ZM206.5 133.5h-1v1h1v-1ZM203.5 134.5h-1v1h1v-1ZM199.5 126.5h-1v1h1v-1ZM196 126.5h-1v1h1v-1ZM201.5 128.5h-1v1h1v-1ZM198 128.5h-1v1h1v-1ZM200 130.5h-1v1h1v-1ZM201.5 132.5h-1v1h1v-1ZM197 131.5h-1v1h1v-1ZM199 133.5h-1v1h1v-1ZM200.5 135.5h-1v1h1v-1ZM199 137h-1v1h1v-1ZM196.5 136h-1v1h1v-1ZM203.5 137h-1v1h1v-1ZM206.5 136h-1v1h1v-1ZM208.5 137h-1v1h1v-1ZM211 139h-16v1h16z"/><path fill="#2F272B" d="M209 139h-1v1h1v-1ZM207.5 139h-1v1h1v-1ZM204.5 139h-1v1h1v-1ZM202.5 139h-1v1h1v-1ZM199.5 139h-1v1h1v-1ZM197 139h-1v1h1v-1Z"/><path fill="#E5C6A2" d="M212 106h-17v17h17z"/><path fill="#D66921" d="M262 56h-17v17h17z"/><path fill="#E27C19" d="M245 73h-17v33.5h17V73Z"/><path fill="#FB9632" d="M228 73h-17v17h17z"/><path fill="#D0A370" d="M245 123h-17v17h17z"/><path fill="#D66921" d="M245 140h-17v17h17z"/><path fill="#E5C6A2" d="M228 140h-16.5v17H228v-17Z"/><path fill="#D66921" d="M228 89.5h-33V106h17v34h16V89.5Z"/><path fill="#B14D0B" d="M245 106h-17v17h17z"/><path fill="#9B5F27" d="M262 157h-18v17h18z"/><path fill="#9B5F27" d="M279 173h-18v35h18z"/><path fill="#9B5F27" d="M262 189h-18v85h18v-85Z"/><path fill="#9B5F27" d="M245 206.202h-17V274h16l1-67.798Z"/><path fill="#B2743B" d="M244 157h-16v17h-17v-17h-16.5v17H178v100.5h50V208h16v-18.5h17.5V174H244v-17Z"/><path fill="#D0A370" d="M228 157h-17v17h17zM279 208h-17v16h17z"/><path fill="#3A2212" d="M262 274h-84v18h84z"/><path fill="#A7A6A6" d="M212 274h-17v17h17z"/><path fill="#5B1D00" d="M262 291h-84v168h17v-50h16.5V307.5h17V409H245v50h17V291Z"/><path fill="#722400" d="M245 307h-67v118h17l-1.5-99.5H228v84h17V307Z"/><path fill="#5B1D00" d="M245 375h-17v17h17z"/><path fill="#3A2212" d="M245 358h-17v17h17zM262 342h-17v16h17z"/><path fill="#3A2212" d="M279 291h-18v84h18z"/><path fill="#1B0F07" d="M262 458h-17v51h17zM195 459h-17v50h17z"/><path fill="#3A2212" d="M262 509h-17v36h17zM195 509h-17v36h17z"/><path fill="#E5C6A2" d="M296 224h-17v151h17z"/><path fill="#3A2212" d="M296 324h-17v34h17z"/><path fill="#D0A370" d="M178 224h-17v151h17z"/><path fill="#3A2212" d="M178 324h-17v34h17z"/><path fill="#E1E1E1" d="M108 429H90v18h18v-18ZM126 411h-18v18h18v-18ZM144 393h-18v18h18v-18Z"/><path fill="#3A2212" d="M161 375h-17v18h17z"/></svg>