<svg xmlns="http://www.w3.org/2000/svg" width="600" height="600" fill="none"><path fill="#686762" fill-opacity=".8" d="M226 511.782h148.162v16.462H226v-16.462Z"/><path fill="#432614" d="M258.925 317.76h34.101v81.136h-34.101z"/><path fill="#A29081" d="M275 267h82v51h-82zM341 318h16v81h-16zM275.387 349.509h17.638v16.462h-17.638z"/><path fill="#7F7164" d="M275.387 382.434h17.638v16.463h-17.638v-16.463ZM275.387 333.047h17.638v16.462h-17.638v-16.462ZM259 399l16.387-.103v14.698H259V399ZM293.025 317.76h31.161v-17.638H356.5v17.638h-15.264v95.835h-17.05v-80.548h-31.161V317.76ZM259 267h16v51h-16z"/><path fill="#432614" d="M293.025 300.122h15.287v17.638h-15.287zM325 284h32v16h-32z"/><path fill="#F0A748" d="M308.312 300.122h16.462v17.638h-16.462z"/><path fill="#35200F" d="M259 413h16v99h-16z"/><path fill="#14181B" d="M258.925 511.782h17.638v16.462h-17.638v-16.462ZM323.598 511.782h17.639v16.462h-17.639v-16.462Z"/><path fill="#35200F" d="M324 413h17v99h-17z"/><path fill="#0D1D12" d="M242.462 333.047h16.462v16.462h-16.462v-16.462Z"/><path fill="#A04B2C" d="M290.673 137.85h17.639v16.462h-17.639V137.85ZM290.673 168.423h17.639v98.774h-17.639v-98.774ZM324 168h17v99h-17v-99ZM324.774 137.85h16.463v16.462h-16.463V137.85ZM242.462 184.885h16.462v16.463h-16.462v-16.463ZM258.925 154.312h16.462v16.462h-16.462v-16.462Z"/><path fill="#823217" d="M242.462 201.348h16.462v32.924h-16.462v-32.924ZM290.673 154.312h17.639v14.111h-17.639v-14.111ZM324.774 154.312h16.463v14.111h-16.463v-14.111ZM308 185h17v82h-17v-82ZM258.925 170.775h16.462v96.422h-16.462v-96.422Z"/><path fill="#0D1D12" d="M341 154h16v113h-16V154ZM275.387 137.85h15.286v129.347h-15.286V137.85Z"/><path fill="#E7CBBD" d="M290.673 72h51.739v49.975H324.774v32.337h-16.462v-16.551h-17.639V72Z"/><path fill="#CDA998" d="M308.312 154.312h16.462v31.749h-16.462z"/><path fill="#3C2D0C" d="M290.673 72h51.739v16.462h-17.638v17.051h-16.462v17.05h-17.639V72Z"/><path fill="#E7CBBD" d="M226 398.896h16.462v15.287H226v-15.287Z"/><path fill="#A04B2C" d="M226 234.272h16.462v16.463H226v-16.463Z"/><path fill="#823217" d="M226 250.735h16.462v148.162H226V250.735Z"/><path fill="#E7CBBD" d="M357 400h16v15h-16v-15Z"/><path fill="#823217" d="M357 235h16v165h-16V235Z"/></svg>