<svg xmlns="http://www.w3.org/2000/svg" width="600" height="600" fill="none"><path fill="#6C7350" fill-opacity=".8" d="M473 520H107v16h36v16h211.5v-16H473v-16Z"/><path fill="#503A2A" d="M271 135h-72v28h72v-28Z"/><path fill="#6D6966" d="M271 120h-29v15.5h14.5V149H271v-29ZM285 135h-14v28h14zM271 178h-14v42h14zM271 235h-14v28h14zM285 249h-14v14h14z"/><path fill="#838383" d="M271 220h-14v15h14v-15Z"/><path fill="#291C11" d="M257 149h-15v29h15z"/><path fill="#A48517" d="M257 178h-15v42h15v-42ZM214 163h-15v43h15v-43ZM242 249h-14v42.5h14V249ZM214 263h-15v28.5h15V263Z"/><path fill="#2E477F" d="M199 163h-28v29h28v-29Z"/><path fill="#838383" d="M199 106h-42.5v14.5H142V163h57v-57Z"/><path fill="#A6A6A6" d="M185 120.5h-14V149h14v-28.5ZM171 120.5h-29V135h29v-14.5ZM199 135h-14v28h14z"/><path fill="#503A2A" d="M171 149h-29v29h14.5v-14.5H171V149ZM185 163h-14v15h14v-15Z"/><path fill="#2E477F" d="M271 163h-14v15h14z"/><path fill="#405A94" d="M242 163h-28v29h28zM242 192h-28v43h28z"/><path fill="#2E477F" d="M185 192h-14v71h14zM257 220h-15v15h15v-15ZM257 249h-15v14h15v-14ZM271 278h-15v14h15z"/><path fill="#405A94" d="M257 263h-15v28.5h15V263ZM271 291.5h-14l-.5 58.5H271v-58.5Z"/><path fill="#2E477F" d="M271 278h-14v13.5h14V278ZM286 335h-15v14h15v-14ZM286 349h-15v13.5h15V349Z"/><path fill="#405A94" d="M286 349h-15v14h15z"/><path fill="#2E477F" d="M171 335h-29v28h29v-28ZM185 277h-14v14.5h14V277Z"/><path fill="#405A94" d="M199 277h-14v14.5h14V277ZM171 349h-14v15h14v-15Z"/><path fill="#405A94" d="M171 349h-14v14h14v-14ZM171 306h-14v15h14v-15ZM199 192h-14v28h14v-28ZM199 249h-14v14h14v-14ZM185 291.5h-14V349h14v-57.5Z"/><path fill="#291C11" d="M242 178h-14v14h14zM228 192h-14v14h14zM214 206h-15v14h15v-14Z"/><path fill="#503A2A" d="M214 249h-15v14h15v-14ZM199 263h-14v14h14v-14Z"/><path fill="#A48517" d="M214 220h-15v15h15v-15ZM242 220h-15v15h15v-15Z"/><path fill="#291C11" d="M257 335h-28v72h28zM199 220h-14v15h14v-15ZM185 235h-14v14h14z"/><path fill="#A6A6A6" d="M185 389h-28v32h28z"/><path fill="#291C11" d="M199 349h-42v57h13.5v-15h15v15H199v-57ZM185 263h-14v14h14zM171 263h-14v43h14z"/><path fill="#503A2A" d="M257 235h-72v14h72v-14Z"/><path fill="#6D6966" d="M242 291.5h-43V335h43v-43.5Z"/><path fill="#6D6966" d="M228 249h-14v43h14z"/><path fill="#A48517" d="M257 291.5h-15V349h15v-57.5ZM199 291.5h-14V349h14v-57.5ZM271 349h-14v14h14v-14ZM286 363h-15v14h15zM185 349h-15v14h15zM171 363h-14v15h14z"/><path fill="#212833" d="M271 363h-14v14h14z"/><path fill="#838383" d="M271 377h-14v30h14z"/><path fill="#6D6966" d="M272 506h-15v14h15zM257 392h-14v114h14V392Z"/><path fill="#503A2A" d="M257 506h-14v14h14z"/><path fill="#838383" d="M157 463.5h-14V506h14v-42.5ZM171 421h-14v42.5h14V421ZM171 506h-14v14h14z"/><path fill="#503A2A" d="M157 506h-14v14h14v-14Z"/><path fill="#A6A6A6" d="M242 49h-43v71h43V49Z"/><path fill="#838383" d="M214 106.5V92h-15v28h29v-13.5h-14ZM228 49h-29v29h15V63.5h14V49Z"/><path fill="#291C11" d="M242 78h-28v14h28zM214 120v-13.5h-15V92h-14v28.5h14v14.649h14.5V149h14v-13.5H242V120h-28ZM157 321h-29v14h29zM142 349h-28v14h28zM142 335h-14v14h14z"/><path fill="#A6A6A6" d="M171 321h-14v14h14zM157 278h-14v43h14z"/><path fill="#838383" d="M157 235h-14v43h14zM157 178h-15v42h15z"/><path fill="#838383" d="M171 163h-15v43h15z"/><path fill="#291C11" d="M128 363h-14v15h14zM114 391h-14v16h14zM100 420H86v15h14zM128 378h-28v13h28zM114 407H86v13h28z"/><path fill="#A6A6A6" d="M157 220h-28v15h28z"/><path fill="#838383" d="M299 263h-28v15h28v-15Z"/><path fill="#838383" d="M313.5 277.5h-28v14h28v-14Z"/><path fill="#503A2A" d="M343.5 261.5H328v16h15.5v-16ZM328 277.5h-14.5v14H328v-14ZM313.5 291.5h-15v15h15v-15ZM328 306.5h-14.5V321H328v-14.5Z"/><path fill="#838383" d="M328 291.5h-14.5v15H328v-15ZM343 306.5h-15V321h15v-14.5Z"/><path fill="#6D6966" d="M357 291.5h-14v15h14v-15ZM385 306.5h-15V321h15v-14.5ZM414 321h-15v14h15v-14ZM442.5 335H428v14h14.5v-14ZM471 349h-14.5v14.5H471V349ZM500 363.5h-15V378h15v-14.5Z"/><path fill="#D7D7D7" d="M343 291.5h-15v15h15v-15ZM370 306.5h-27V321h27v-14.5ZM399 321h-29v14h29v-14ZM428 335h-29v14h29v-14ZM456.5 349H428v14.5h28.5V349ZM485 363.5h-28.5V378H485v-14.5ZM514 378h-29v14h29v-14Z"/><path fill="#405A94" d="M171 349h-14v14h14v-14Z"/></svg>