<svg xmlns="http://www.w3.org/2000/svg" width="600" height="600" fill="none"><path fill="#6C7350" fill-opacity=".8" d="M127 520h366v16h-36v16H245.5v-16H127v-16Z"/><path fill="#503A2A" d="M329 135h72v28h-72v-28Z"/><path fill="#6D6966" d="M329 120h29v15.5h-14.5V149H329v-29ZM315 135h14v28h-14zM329 178h14v42h-14zM329 235h14v28h-14zM315 249h14v14h-14z"/><path fill="#838383" d="M329 220h14v15h-14v-15Z"/><path fill="#291C11" d="M343 149h15v29h-15z"/><path fill="#A48517" d="M343 178h15v42h-15v-42ZM386 163h15v43h-15v-43ZM358 249h14v42.5h-14V249ZM386 263h15v28.5h-15V263Z"/><path fill="#2E477F" d="M401 163h28v29h-28v-29Z"/><path fill="#838383" d="M401 106h42.5v14.5H458V163h-57v-57Z"/><path fill="#A6A6A6" d="M415 120.5h14V149h-14v-28.5ZM429 120.5h29V135h-29v-14.5ZM401 135h14v28h-14z"/><path fill="#503A2A" d="M429 149h29v29h-14.5v-14.5H429V149ZM415 163h14v15h-14v-15Z"/><path fill="#2E477F" d="M329 163h14v15h-14z"/><path fill="#405A94" d="M358 163h28v29h-28zM358 192h28v43h-28z"/><path fill="#2E477F" d="M415 192h14v71h-14zM343 220h15v15h-15v-15ZM343 249h15v14h-15v-14ZM329 278h15v14h-15z"/><path fill="#405A94" d="M343 263h15v28.5h-15V263ZM329 291.5h14l.5 58.5H329v-58.5Z"/><path fill="#2E477F" d="M329 278h14v13.5h-14V278ZM314 335h15v14h-15v-14ZM314 349h15v13.5h-15V349Z"/><path fill="#405A94" d="M314 349h15v14h-15z"/><path fill="#2E477F" d="M429 335h29v28h-29v-28ZM415 277h14v14.5h-14V277Z"/><path fill="#405A94" d="M401 277h14v14.5h-14V277ZM429 349h14v15h-14v-15Z"/><path fill="#405A94" d="M429 349h14v14h-14v-14ZM429 306h14v15h-14v-15ZM401 192h14v28h-14v-28ZM401 249h14v14h-14v-14ZM415 291.5h14V349h-14v-57.5Z"/><path fill="#291C11" d="M358 178h14v14h-14zM372 192h14v14h-14zM386 206h15v14h-15v-14Z"/><path fill="#503A2A" d="M386 249h15v14h-15v-14ZM401 263h14v14h-14v-14Z"/><path fill="#A48517" d="M386 220h15v15h-15v-15ZM358 220h15v15h-15v-15Z"/><path fill="#291C11" d="M343 335h28v72h-28zM401 220h14v15h-14v-15ZM415 235h14v14h-14z"/><path fill="#A6A6A6" d="M415 389h28v32h-28z"/><path fill="#291C11" d="M401 349h42v57h-13.5v-15h-15v15H401v-57ZM415 263h14v14h-14zM429 263h14v43h-14z"/><path fill="#503A2A" d="M343 235h72v14h-72v-14Z"/><path fill="#6D6966" d="M358 291.5h43V335h-43v-43.5Z"/><path fill="#6D6966" d="M372 249h14v43h-14z"/><path fill="#A48517" d="M343 291.5h15V349h-15v-57.5ZM401 291.5h14V349h-14v-57.5ZM329 349h14v14h-14v-14ZM314 363h15v14h-15zM415 349h15v14h-15zM429 363h14v15h-14z"/><path fill="#212833" d="M329 363h14v14h-14z"/><path fill="#838383" d="M329 377h14v30h-14z"/><path fill="#6D6966" d="M328 506h15v14h-15zM343 392h14v114h-14V392Z"/><path fill="#503A2A" d="M343 506h14v14h-14z"/><path fill="#838383" d="M443 463.5h14V506h-14v-42.5ZM429 421h14v42.5h-14V421ZM429 506h14v14h-14z"/><path fill="#503A2A" d="M443 506h14v14h-14v-14Z"/><path fill="#A6A6A6" d="M358 49h43v71h-43V49Z"/><path fill="#838383" d="M386 106.5V92h15v28h-29v-13.5h14ZM372 49h29v29h-15V63.5h-14V49Z"/><path fill="#291C11" d="M358 78h28v14h-28zM386 120v-13.5h15V92h14v28.5h-14v14.649h-14.5V149h-14v-13.5H358V120h28ZM443 321h29v14h-29zM458 349h28v14h-28zM458 335h14v14h-14z"/><path fill="#A6A6A6" d="M429 321h14v14h-14zM443 278h14v43h-14z"/><path fill="#838383" d="M443 235h14v43h-14zM443 178h15v42h-15z"/><path fill="#838383" d="M429 163h15v43h-15z"/><path fill="#291C11" d="M472 363h14v15h-14zM486 391h14v16h-14zM500 420h14v15h-14zM472 378h28v13h-28zM486 407h28v13h-28z"/><path fill="#A6A6A6" d="M443 220h28v15h-28z"/><path fill="#838383" d="M301 263h28v15h-28v-15Z"/><path fill="#838383" d="M286.5 277.5h28v14h-28v-14Z"/><path fill="#503A2A" d="M256.5 261.5H272v16h-15.5v-16ZM272 277.5h14.5v14H272v-14ZM286.5 291.5h15v15h-15v-15ZM272 306.5h14.5V321H272v-14.5Z"/><path fill="#838383" d="M272 291.5h14.5v15H272v-15ZM257 306.5h15V321h-15v-14.5Z"/><path fill="#6D6966" d="M243 291.5h14v15h-14v-15ZM215 306.5h15V321h-15v-14.5ZM186 321h15v14h-15v-14ZM157.5 335H172v14h-14.5v-14ZM129 349h14.5v14.5H129V349ZM100 363.5h15V378h-15v-14.5Z"/><path fill="#D7D7D7" d="M257 291.5h15v15h-15v-15ZM230 306.5h27V321h-27v-14.5ZM201 321h29v14h-29v-14ZM172 335h29v14h-29v-14ZM143.5 349H172v14.5h-28.5V349ZM115 363.5h28.5V378H115v-14.5ZM86 378h29v14H86v-14Z"/><path fill="#405A94" d="M429 349h14v14h-14v-14Z"/></svg>