<svg width="84" height="50" viewBox="0 0 84 50" fill="none" xmlns="http://www.w3.org/2000/svg">
    <path d="M22.2242 21.0255C18.6016 21.0255 15.6651 18.089 15.6651 14.4664C15.6651 10.8438 18.6016 7.90727 22.2242 7.90727H30.1292C32.3124 7.90727 34.0829 6.13674 34.0829 3.95357C34.0829 1.7704 32.3124 -0.00012207 30.1292 -0.00012207H21.9315C13.9425 -0.00012207 7.46741 6.47502 7.46741 14.464C7.46741 20.4161 11.0636 25.5286 16.2025 27.7477C21.9483 26.8889 27.4254 24.4922 32.166 21.0231H22.2242V21.0255Z"
          fill="url(#paint0_linear_169_131)"/>
    <path d="M16.2031 27.7502C17.9593 28.5083 19.8953 28.9305 21.9321 28.9305H26.1761C30.5425 28.9305 34.0811 25.3919 34.0811 21.0255H32.1667C27.4261 24.4946 21.9489 26.8913 16.2031 27.7502Z"
          fill="url(#paint1_linear_169_131)"/>
    <path d="M67.2419 1.07239C62.1102 2.27193 57.1897 4.27997 53.5023 7.90739H61.4913C65.1139 7.90739 68.0504 10.8439 68.0504 14.4665C68.0504 18.0891 65.1139 21.0256 61.4913 21.0256H53.5863C51.4031 21.0256 49.6326 22.7961 49.6326 24.9793C49.6326 27.1625 51.4031 28.933 53.5863 28.933H61.784C69.7729 28.933 76.2481 22.4579 76.2481 14.4689C76.2457 8.4112 72.5223 3.22677 67.2419 1.07239Z"
          fill="url(#paint2_linear_169_131)"/>
    <path d="M61.7816 0.00268555H57.5376C53.1712 0.00268555 49.6326 3.54134 49.6326 7.90768H53.5023C57.1921 4.28026 62.1102 2.27222 67.2419 1.07268C65.5553 0.384142 63.7152 0.00268555 61.7816 0.00268555Z"
          fill="url(#paint3_linear_169_131)"/>
    <path d="M59.8642 0.00268555L43.0921 20.323C38.5939 25.7737 31.8956 28.9309 24.8279 28.9309L46.3597 3.79325C48.4205 1.38696 51.429 0.00268555 54.5982 0.00268555H59.8642Z"
          fill="url(#paint4_linear_169_131)"/>
    <path d="M5.31646 44.8627H7.46474L8.54472 46.2521L9.60719 47.4897L11.6095 49.9999H9.25109L7.87338 48.307L7.16702 47.3029L5.31646 44.8627ZM11.7905 43.0413C11.7905 44.3451 11.5434 45.4543 11.0491 46.3688C10.5587 47.2834 9.88934 47.982 9.04093 48.4646C8.19641 48.9433 7.2468 49.1826 6.19212 49.1826C5.12966 49.1826 4.17616 48.9413 3.33164 48.4587C2.48712 47.9761 1.81967 47.2776 1.3293 46.363C0.838934 45.4484 0.59375 44.3412 0.59375 43.0413C0.59375 41.7376 0.838934 40.6284 1.3293 39.7138C1.81967 38.7993 2.48712 38.1026 3.33164 37.6239C4.17616 37.1413 5.12966 36.9001 6.19212 36.9001C7.2468 36.9001 8.19641 37.1413 9.04093 37.6239C9.88934 38.1026 10.5587 38.7993 11.0491 39.7138C11.5434 40.6284 11.7905 41.7376 11.7905 43.0413ZM9.22774 43.0413C9.22774 42.1968 9.10125 41.4846 8.84828 40.9047C8.59921 40.3248 8.247 39.8851 7.79166 39.5854C7.33631 39.2857 6.80314 39.1359 6.19212 39.1359C5.58111 39.1359 5.04793 39.2857 4.59259 39.5854C4.13725 39.8851 3.78309 40.3248 3.53012 40.9047C3.28105 41.4846 3.15651 42.1968 3.15651 43.0413C3.15651 43.8859 3.28105 44.5981 3.53012 45.1779C3.78309 45.7578 4.13725 46.1976 4.59259 46.4973C5.04793 46.7969 5.58111 46.9468 6.19212 46.9468C6.80314 46.9468 7.33631 46.7969 7.79166 46.4973C8.247 46.1976 8.59921 45.7578 8.84828 45.1779C9.10125 44.5981 9.22774 43.8859 9.22774 43.0413Z"
          fill="#0A74F0"/>
    <path d="M19.3664 45.2013V40.0524H21.8533V49.0192H19.4656V47.3904H19.3722C19.1699 47.9158 18.8332 48.3381 18.3623 48.6572C17.8953 48.9763 17.3251 49.1359 16.6519 49.1359C16.0525 49.1359 15.5252 48.9997 15.0698 48.7273C14.6145 48.4548 14.2584 48.0676 14.0015 47.5656C13.7486 47.0635 13.6201 46.4622 13.6162 45.7617V40.0524H16.1031V45.318C16.107 45.8473 16.2491 46.2657 16.5293 46.5731C16.8095 46.8806 17.185 47.0343 17.6559 47.0343C17.9556 47.0343 18.2358 46.9662 18.4966 46.83C18.7573 46.6899 18.9675 46.4836 19.127 46.2112C19.2905 45.9388 19.3703 45.6021 19.3664 45.2013Z"
          fill="#0A74F0"/>
    <path d="M23.8425 49.0192V40.0524H26.3293V49.0192H23.8425ZM25.0917 38.8965C24.722 38.8965 24.4048 38.774 24.1402 38.5288C23.8794 38.2797 23.7491 37.982 23.7491 37.6356C23.7491 37.2931 23.8794 36.9993 24.1402 36.7541C24.4048 36.505 24.722 36.3805 25.0917 36.3805C25.4615 36.3805 25.7767 36.505 26.0374 36.7541C26.3021 36.9993 26.4344 37.2931 26.4344 37.6356C26.4344 37.982 26.3021 38.2797 26.0374 38.5288C25.7767 38.774 25.4615 38.8965 25.0917 38.8965Z"
          fill="#0A74F0"/>
    <path d="M32.3728 49.1943C31.4544 49.1943 30.6643 48.9997 30.0027 48.6105C29.345 48.2174 28.8391 47.6726 28.4849 46.976C28.1346 46.2793 27.9595 45.4776 27.9595 44.5708C27.9595 43.6523 28.1366 42.8467 28.4907 42.154C28.8488 41.4574 29.3567 40.9145 30.0144 40.5253C30.6721 40.1322 31.4544 39.9357 32.3612 39.9357C33.1434 39.9357 33.8284 40.0777 34.416 40.3618C35.0037 40.6459 35.4688 41.0448 35.8112 41.5585C36.1537 42.0723 36.3425 42.6755 36.3775 43.3682H34.0307C33.9646 42.9207 33.7895 42.5607 33.5053 42.2883C33.2251 42.0119 32.8574 41.8738 32.402 41.8738C32.0167 41.8738 31.6801 41.9789 31.3921 42.189C31.108 42.3953 30.8862 42.6969 30.7266 43.0939C30.567 43.4908 30.4872 43.9715 30.4872 44.5358C30.4872 45.1079 30.5651 45.5944 30.7208 45.9952C30.8803 46.3961 31.1041 46.7016 31.3921 46.9117C31.6801 47.1219 32.0167 47.227 32.402 47.227C32.6861 47.227 32.941 47.1686 33.1668 47.0518C33.3964 46.9351 33.5851 46.7658 33.733 46.544C33.8848 46.3182 33.984 46.0478 34.0307 45.7325H36.3775C36.3386 46.4175 36.1518 47.0207 35.8171 47.5422C35.4863 48.0598 35.029 48.4646 34.4452 48.7565C33.8614 49.0483 33.1707 49.1943 32.3728 49.1943Z"
          fill="#0A74F0"/>
    <path d="M40.2231 46.4389L40.2289 43.4558H40.5909L43.463 40.0524H46.3177L42.4589 44.5591H41.8693L40.2231 46.4389ZM37.9697 49.0192V37.0635H40.4566V49.0192H37.9697ZM43.574 49.0192L40.9353 45.1137L42.5932 43.3566L46.487 49.0192H43.574Z"
          fill="#0A74F0"/>
    <path d="M51.3892 49.0192V37.0635H53.9169V46.9351H59.0424V49.0192H51.3892Z" fill="#0A74F0"/>
    <path d="M60.6697 49.0192V40.0524H63.1566V49.0192H60.6697ZM61.919 38.8965C61.5493 38.8965 61.2321 38.774 60.9674 38.5288C60.7067 38.2797 60.5763 37.982 60.5763 37.6356C60.5763 37.2931 60.7067 36.9993 60.9674 36.7541C61.2321 36.505 61.5493 36.3805 61.919 36.3805C62.2887 36.3805 62.6039 36.505 62.8647 36.7541C63.1293 36.9993 63.2617 37.2931 63.2617 37.6356C63.2617 37.982 63.1293 38.2797 62.8647 38.5288C62.6039 38.774 62.2887 38.8965 61.919 38.8965Z"
          fill="#0A74F0"/>
    <path d="M67.6356 43.8353V49.0192H65.1487V40.0524H67.5188V41.6344H67.6239C67.8224 41.1129 68.1551 40.7004 68.6221 40.3968C69.0892 40.0894 69.6554 39.9357 70.3209 39.9357C70.9436 39.9357 71.4865 40.0719 71.9496 40.3443C72.4128 40.6167 72.7728 41.0059 73.0296 41.5118C73.2865 42.0139 73.4149 42.6132 73.4149 43.3099V49.0192H70.928V43.7535C70.9319 43.2048 70.7918 42.7767 70.5077 42.4692C70.2236 42.1579 69.8325 42.0022 69.3343 42.0022C68.9996 42.0022 68.7039 42.0742 68.447 42.2182C68.194 42.3622 67.9956 42.5724 67.8516 42.8487C67.7115 43.1211 67.6395 43.45 67.6356 43.8353Z"
          fill="#0A74F0"/>
    <path d="M77.6283 46.4389L77.6341 43.4558H77.9961L80.8682 40.0524H83.7229L79.8641 44.5591H79.2745L77.6283 46.4389ZM75.3749 49.0192V37.0635H77.8618V49.0192H75.3749ZM80.9791 49.0192L78.3405 45.1137L79.9984 43.3566L83.8922 49.0192H80.9791Z"
          fill="#0A74F0"/>
    <defs>
        <linearGradient id="paint0_linear_169_131" x1="7.46762" y1="13.8766" x2="34.0815" y2="13.8766"
                        gradientUnits="userSpaceOnUse">
            <stop stop-color="#ABFFFF"/>
            <stop offset="0.4076" stop-color="#12B8FF"/>
            <stop offset="1" stop-color="#001AFF"/>
        </linearGradient>
        <linearGradient id="paint1_linear_169_131" x1="16.2036" y1="24.9788" x2="34.0821" y2="24.9788"
                        gradientUnits="userSpaceOnUse">
            <stop stop-color="#48CEFF"/>
            <stop offset="0.4076" stop-color="#0166FF"/>
            <stop offset="1" stop-color="#1A0ACF"/>
        </linearGradient>
        <linearGradient id="paint2_linear_169_131" x1="49.6325" y1="15.002" x2="76.2464" y2="15.002"
                        gradientUnits="userSpaceOnUse">
            <stop stop-color="#001AFF"/>
            <stop offset="0.5924" stop-color="#12B8FF"/>
            <stop offset="1" stop-color="#ABFFF5"/>
        </linearGradient>
        <linearGradient id="paint3_linear_169_131" x1="49.6325" y1="3.9561" x2="67.2414" y2="3.9561"
                        gradientUnits="userSpaceOnUse">
            <stop stop-color="#1030E2"/>
            <stop offset="0.5924" stop-color="#0751F3"/>
            <stop offset="1" stop-color="#2DA7FF"/>
        </linearGradient>
        <linearGradient id="paint4_linear_169_131" x1="24.8283" y1="14.4676" x2="59.8644" y2="14.4676"
                        gradientUnits="userSpaceOnUse">
            <stop offset="0.0625" stop-color="#1AF1FE"/>
            <stop offset="0.5292" stop-color="#0A74F0"/>
            <stop offset="0.9986" stop-color="#12FFFF"/>
        </linearGradient>
    </defs>
</svg>
